<svg xmlns="http://www.w3.org/2000/svg" class="iconAbove" viewBox="0 0 369.902 163">
    <g id="b929d27c-8fe6-4b88-bbf5-f07cf37fe4ad" fill="#fff">
        <path d="M0.30 3.04L7.49 3.04L7.75 4.85L7.01 4.85L7.01 4.85Q6.84 3.74 6.23 3.74L6.23 3.74L4.75 3.74L4.75 12.30L5.43 12.30L5.43 13.01L2.32 13.01L2.32 12.30L3.04 12.30L3.04 3.74L1.55 3.74L1.55 3.74Q0.94 3.74 0.78 4.85L0.78 4.85L0.04 4.85L0.30 3.04ZM10.60 3.74L10.60 12.31L11.71 12.31L11.71 12.31Q12.57 12.31 12.94 12.07L12.94 12.07L12.94 12.07Q14.27 11.22 14.27 7.97L14.27 7.97L14.27 7.97Q14.27 4.83 13.00 4.03L13.00 4.03L13.00 4.03Q12.77 3.88 12.43 3.81L12.43 3.81L12.43 3.81Q12.09 3.74 11.63 3.74L11.63 3.74L10.60 3.74ZM8.20 3.74L8.20 3.04L12.07 3.04L12.07 3.04Q13.17 3.04 13.98 3.42L13.98 3.42L13.98 3.42Q14.78 3.81 15.24 4.53L15.24 4.53L15.24 4.53Q15.59 5.11 15.78 5.99L15.78 5.99L15.78 5.99Q15.97 6.87 15.97 8.02L15.97 8.02L15.97 8.02Q15.97 9.14 15.78 10.04L15.78 10.04L15.78 10.04Q15.59 10.94 15.27 11.51L15.27 11.51L15.27 11.51Q14.81 12.23 14.02 12.62L14.02 12.62L14.02 12.62Q13.23 13.01 12.13 13.01L12.13 13.01L8.20 13.01L8.20 12.30L8.89 12.30L8.89 3.74L8.20 3.74ZM19.22 3.74L19.22 7.68L20.95 7.68L20.95 7.68Q21.23 7.68 21.50 7.50L21.50 7.50L21.50 7.50Q21.77 7.33 22.01 7L22.01 7L22.01 7Q22.22 6.69 22.34 6.36L22.34 6.36L22.34 6.36Q22.46 6.03 22.46 5.71L22.46 5.71L22.46 5.71Q22.46 4.93 22.00 4.33L22.00 4.33L22.00 4.33Q21.53 3.73 20.79 3.73L20.79 3.73L19.22 3.74ZM19.22 8.40L19.22 12.30L19.96 12.30L19.96 13.01L16.80 13.01L16.80 12.30L17.49 12.31L17.49 3.74L16.80 3.74L16.80 3.04L20.99 3.04L20.99 3.04Q21.63 3.04 22.18 3.20L22.18 3.20L22.18 3.20Q22.74 3.37 23.18 3.68L23.18 3.68L23.18 3.68Q23.67 4.05 23.93 4.56L23.93 4.56L23.93 4.56Q24.19 5.07 24.19 5.70L24.19 5.70L24.19 5.70Q24.19 6.17 24.01 6.60L24.01 6.60L24.01 6.60Q23.83 7.03 23.50 7.40L23.50 7.40L23.50 7.40Q23.20 7.71 22.83 7.94L22.83 7.94L22.83 7.94Q22.46 8.18 22.05 8.29L22.05 8.29L22.05 8.29Q22.31 9.20 22.93 10.19L22.93 10.19L22.93 10.19Q23.54 11.18 24.50 12.30L24.50 12.30L25.24 12.30L25.24 13.01L23.02 13.01L23.02 13.01Q22.19 11.91 21.53 10.76L21.53 10.76L21.53 10.76Q20.86 9.61 20.36 8.40L20.36 8.40L19.22 8.40ZM28.29 3.74L28.29 7.68L30.02 7.68L30.02 7.68Q30.30 7.68 30.57 7.50L30.57 7.50L30.57 7.50Q30.84 7.33 31.08 7L31.08 7L31.08 7Q31.29 6.69 31.41 6.36L31.41 6.36L31.41 6.36Q31.53 6.03 31.53 5.71L31.53 5.71L31.53 5.71Q31.53 4.93 31.08 4.33L31.08 4.33L31.08 4.33Q30.60 3.73 29.86 3.73L29.86 3.73L28.29 3.74ZM25.87 13.01L25.87 12.30L26.56 12.31L26.56 3.74L25.87 3.74L25.87 3.04L30.06 3.04L30.06 3.04Q30.69 3.04 31.24 3.20L31.24 3.20L31.24 3.20Q31.79 3.37 32.25 3.68L32.25 3.68L32.25 3.68Q32.73 4.05 33.00 4.56L33.00 4.56L33.00 4.56Q33.26 5.07 33.26 5.70L33.26 5.70L33.26 5.70Q33.26 6.28 33.02 6.77L33.02 6.77L33.02 6.77Q32.78 7.27 32.34 7.66L32.34 7.66L32.34 7.66Q31.91 8.01 31.39 8.21L31.39 8.21L31.39 8.21Q30.87 8.40 30.29 8.40L30.29 8.40L28.29 8.40L28.29 12.30L29.03 12.30L29.03 13.01L25.87 13.01ZM33.89 13.01L33.89 12.35L34.58 12.35L34.58 3.70L33.89 3.70L33.89 3.04L36.18 3.04L36.18 12.35L36.87 12.35L36.87 13.01L33.89 13.01ZM39.94 12.52L39.94 12.52L39.94 12.52Q40.46 12.52 41.03 11.98L41.03 11.98L41.03 11.98Q41.29 11.74 41.48 11.48L41.48 11.48L41.48 11.48Q41.67 11.22 41.77 10.94L41.77 10.94L41.77 9.41L41.77 9.41Q41.58 9.49 41.32 9.58L41.32 9.58L41.32 9.58Q41.06 9.67 40.71 9.76L40.71 9.76L40.71 9.76L40.71 9.76Q40.33 9.88 40.07 9.99L40.07 9.99L40.07 9.99Q39.81 10.10 39.65 10.23L39.65 10.23L39.65 10.22L39.65 10.22Q39.21 10.58 39.21 11.31L39.21 11.31L39.21 11.31Q39.21 11.80 39.38 12.13L39.38 12.13L39.38 12.13Q39.57 12.52 39.94 12.52ZM38.20 8.16L38.20 6.48L38.20 6.48Q39.01 6.29 39.55 6.19L39.55 6.19L39.55 6.19Q40.09 6.09 40.37 6.09L40.37 6.09L40.37 6.09Q41.92 6.09 42.57 6.57L42.57 6.57L42.57 6.57Q43.35 7.16 43.35 8.68L43.35 8.68L43.35 11.56L43.35 11.56Q43.35 12.35 43.37 12.35L43.37 12.35L44.16 12.35L44.16 13.01L42.05 13.01L42.05 13.01Q41.84 12.67 41.78 12.15L41.78 12.15L41.78 12.15Q41.62 12.34 41.42 12.51L41.42 12.51L41.42 12.51Q41.21 12.68 40.99 12.81L40.99 12.81L40.99 12.81Q40.33 13.17 39.60 13.17L39.60 13.17L39.60 13.17Q38.73 13.17 38.19 12.73L38.19 12.73L38.19 12.73Q37.62 12.24 37.62 11.36L37.62 11.36L37.62 11.36Q37.62 10.23 38.49 9.76L38.49 9.76L38.49 9.76Q38.91 9.54 40.25 9.27L40.25 9.27L40.25 9.27Q41.33 9.06 41.72 8.69L41.72 8.69L41.72 8.69Q41.73 8.62 41.75 8.53L41.75 8.53L41.75 8.53Q41.76 8.45 41.76 8.35L41.76 8.35L41.76 8.35Q41.76 6.75 40.09 6.75L40.09 6.75L40.09 6.75Q39.00 6.75 38.85 8.16L38.85 8.16L38.20 8.16ZM47.69 6.93L47.22 6.93L47.22 6.93Q47.41 7.42 47.58 7.86L47.58 7.86L47.58 7.86Q47.75 8.30 47.92 8.74L47.92 8.74L47.92 8.74Q48.09 9.17 48.27 9.62L48.27 9.62L48.27 9.62Q48.44 10.06 48.63 10.56L48.63 10.56L48.63 10.56Q48.81 10.09 48.98 9.65L48.98 9.65L48.98 9.65Q49.15 9.20 49.32 8.76L49.32 8.76L49.32 8.76Q49.49 8.31 49.66 7.86L49.66 7.86L49.66 7.86Q49.83 7.41 50.02 6.93L50.02 6.93L49.53 6.93L49.53 6.27L51.45 6.27L51.45 6.93L50.73 6.93L50.73 6.93Q49.98 8.89 49.25 10.83L49.25 10.83L49.25 10.83Q48.51 12.78 47.78 14.74L47.78 14.74L47.78 14.74Q47.20 16.25 46.07 16.25L46.07 16.25L46.07 16.25Q45.86 16.25 45.58 16.19L45.58 16.19L45.58 14.92L45.58 14.92Q46.08 15.17 46.35 15.17L46.35 15.17L46.35 15.17Q46.87 15.17 47.17 14.48L47.17 14.48L47.16 14.49L47.16 14.49Q47.33 14.02 47.49 13.59L47.49 13.59L47.49 13.59Q47.65 13.15 47.82 12.69L47.82 12.69L47.82 12.69Q47.26 11.22 46.71 9.81L46.71 9.81L46.71 9.81Q46.17 8.39 45.60 6.93L45.60 6.93L44.88 6.93L44.88 6.27L47.69 6.27L47.69 6.93ZM51.90 3.04L59.08 3.04L59.34 4.85L58.60 4.85L58.60 4.85Q58.44 3.74 57.83 3.74L57.83 3.74L56.35 3.74L56.35 12.30L57.03 12.30L57.03 13.01L53.92 13.01L53.92 12.30L54.63 12.30L54.63 3.74L53.15 3.74L53.15 3.74Q52.54 3.74 52.38 4.85L52.38 4.85L51.64 4.85L51.90 3.04ZM60.07 6.53L61.84 6.53L61.84 12.61L62.51 12.61L62.51 12.74L60.07 12.74L60.07 12.61L60.78 12.61L60.78 6.67L60.07 6.67L60.07 6.53ZM60.41 4.03L60.41 4.03L60.41 4.03Q60.41 3.84 60.48 3.68L60.48 3.68L60.48 3.68Q60.55 3.51 60.67 3.39L60.67 3.39L60.67 3.39Q60.79 3.27 60.96 3.20L60.96 3.20L60.96 3.20Q61.12 3.12 61.30 3.12L61.30 3.12L61.30 3.12Q61.49 3.12 61.65 3.20L61.65 3.20L61.65 3.20Q61.82 3.27 61.94 3.39L61.94 3.39L61.94 3.39Q62.06 3.51 62.13 3.68L62.13 3.68L62.13 3.68Q62.20 3.84 62.20 4.03L62.20 4.03L62.20 4.03Q62.20 4.21 62.13 4.38L62.13 4.38L62.13 4.38Q62.06 4.54 61.94 4.66L61.94 4.66L61.94 4.66Q61.82 4.78 61.65 4.85L61.65 4.85L61.65 4.85Q61.49 4.92 61.30 4.92L61.30 4.92L61.30 4.92Q61.12 4.92 60.96 4.85L60.96 4.85L60.96 4.85Q60.79 4.78 60.67 4.66L60.67 4.66L60.67 4.66Q60.55 4.54 60.48 4.38L60.48 4.38L60.48 4.38Q60.41 4.21 60.41 4.03ZM71.00 6.73L71.00 6.73L71.00 6.73Q70.83 6.73 70.65 6.81L70.65 6.81L70.65 6.81Q70.47 6.90 70.28 7.08L70.28 7.08L70.28 7.08Q69.91 7.43 69.90 7.81L69.90 7.81L69.90 7.81Q69.90 8.98 69.90 10.08L69.90 10.08L69.90 10.08Q69.90 11.18 69.90 12.35L69.90 12.35L70.59 12.35L70.59 13.01L67.63 13.01L67.63 12.35L68.31 12.35L68.31 8.67L68.31 8.67Q68.31 6.73 67.27 6.73L67.27 6.73L67.27 6.73Q66.99 6.73 66.60 7.05L66.60 7.05L66.60 7.05Q66.19 7.40 66.19 7.64L66.19 7.64L66.19 12.35L66.88 12.35L66.88 13.01L63.91 13.01L63.91 12.35L64.60 12.35L64.60 6.93L63.91 6.93L63.91 6.27L66.19 6.27L66.19 6.54L66.19 6.54Q66.47 6.33 66.80 6.22L66.80 6.22L66.80 6.22Q67.13 6.10 67.50 6.10L67.50 6.10L67.50 6.10Q68.15 6.10 68.66 6.32L68.66 6.32L68.66 6.32Q69.18 6.54 69.54 6.92L69.54 6.92L69.54 6.92Q70.11 6.10 71.24 6.10L71.24 6.10L71.24 6.10Q73.62 6.10 73.62 9.00L73.62 9.00L73.62 12.35L74.31 12.35L74.31 13.01L71.35 13.01L71.35 12.35L72.03 12.35L72.03 8.67L72.03 8.67Q72.03 6.73 71.00 6.73ZM76.94 8.84L79.87 8.84L79.87 8.84Q79.82 7.82 79.44 7.30L79.44 7.30L79.44 7.30Q79.07 6.79 78.39 6.79L78.39 6.79L78.39 6.79Q77.62 6.79 77.25 7.49L77.25 7.49L77.25 7.49Q77.10 7.75 77.03 8.08L77.03 8.08L77.03 8.08Q76.95 8.42 76.94 8.84L76.94 8.84ZM81.48 9.50L76.92 9.50L76.92 9.50Q76.91 9.65 76.91 9.73L76.91 9.73L76.91 9.73Q76.92 9.82 76.92 9.86L76.92 9.86L76.92 9.86Q76.92 12.43 78.77 12.43L78.77 12.43L78.77 12.43Q79.42 12.43 79.99 12.09L79.99 12.09L79.99 12.09Q80.25 11.92 80.48 11.65L80.48 11.65L80.48 11.65Q80.71 11.38 80.86 11.03L80.86 11.03L81.45 11.39L81.45 11.39Q81.27 11.85 80.95 12.20L80.95 12.20L80.95 12.20Q80.64 12.54 80.21 12.78L80.21 12.78L80.21 12.78Q79.84 12.97 79.41 13.07L79.41 13.07L79.41 13.07Q78.98 13.17 78.51 13.17L78.51 13.17L78.51 13.17Q77.71 13.17 77.10 12.89L77.10 12.89L77.10 12.89Q76.49 12.61 76.08 12.07L76.08 12.07L76.08 12.07Q75.72 11.59 75.53 10.93L75.53 10.93L75.53 10.93Q75.35 10.27 75.35 9.47L75.35 9.47L75.35 9.47Q75.35 7.98 76.09 7.07L76.09 7.07L76.09 7.07Q76.90 6.10 78.39 6.10L78.39 6.10L78.39 6.10Q79.13 6.10 79.68 6.33L79.68 6.33L79.68 6.33Q80.24 6.57 80.65 7.04L80.65 7.04L80.65 7.04Q81.40 7.91 81.48 9.50L81.48 9.50Z"
              transform="matrix(4.542013612924749,0,0,4.542013612924749,-0.18168329815057405,89.19228212783294)"/>
    </g>
    <g id="16927cdd-fc62-4d27-aa3d-78ceb3a7797a" fill="#fff" stroke="none">
        <g>
            <path d="M49.983 7.291c-28.781 0-43.17 14.251-43.17 42.752s14.389 42.751 43.17 42.751c28.825 0 43.238-14.25 43.238-42.751S78.808 7.291 49.983 7.291zM75.204 76.06c-5.288 5.497-13.694 8.246-25.221 8.246-11.436 0-19.81-2.748-25.12-8.246-5.31-5.496-7.965-14.169-7.965-26.017 0-11.849 2.655-20.522 7.965-26.018 5.31-5.497 13.683-8.246 25.12-8.246 11.527 0 19.933 2.749 25.221 8.246 5.287 5.496 7.931 14.169 7.931 26.018 0 11.848-2.644 20.52-7.931 26.017z"
                  transform="matrix(1.052594666089173,0,0,1.052594666089173,133.165377724492,-7.383467704637809)"/>
            <path d="M63.001 29.522L50.328 42.194l-7.76-7.76a5.212 5.212 0 1 0-7.372 7.372l11.365 11.365a5.195 5.195 0 0 0 3.767 1.523 5.193 5.193 0 0 0 3.767-1.523l16.277-16.277a5.212 5.212 0 1 0-7.371-7.372zM73.966 49.932v.111c0 .208-.003.415-.008.622a3.157 3.157 0 1 0 6.314.151c.006-.257.009-.515.009-.773v-.111a3.158 3.158 0 0 0-6.315 0zM22.99 46.243c-1.728-.032-3.189 1.341-3.23 3.084-.006.238-.008.476-.008.715v.055c0 1.744 1.414 3.13 3.158 3.13s3.158-1.442 3.158-3.185c0-.19.002-.38.007-.57a3.16 3.16 0 0 0-3.085-3.229zM49.934 26.093h.083c.181 0 .363.002.543.006l.073.001a3.158 3.158 0 0 0 .07-6.314 31.235 31.235 0 0 0-.686-.008h-.083a3.158 3.158 0 0 0 0 6.315zM50.017 73.992c-.199 0-.398-.002-.596-.007-1.726-.049-3.19 1.339-3.231 3.083a3.159 3.159 0 0 0 3.083 3.231c.248.006.496.009.744.009h.027c1.744 0 3.144-1.414 3.144-3.158s-1.427-3.158-3.171-3.158z"
                  transform="matrix(1.052594666089173,0,0,1.052594666089173,133.165377724492,-7.383467704637809)"/>
        </g>
    </g>
</svg>